PathFileType	4	(X/Y/Z)	Patient4_TMGait_0pt5_02_right_27.trc.trc
DataRate	CameraRate	NumFrames	NumMarkers	Units	OrigDataRate	OrigDataStartFrame	OrigNumFrames
74.074074074074	74.074074074074	4	33	mm	74.074074074074	106	       141
Frame#	Time	Sacral			L.Shoulder			Chest			R.Shoulder			Neck			R.ASIS			L.ASIS			R.Thigh.Superior			R.Thigh.Lateral			R.Thigh.Inferior			R.Patella			L.Thigh.Superior			L.Thigh.Lateral			L.Thigh.Inferior			L.Patella			L.Shank.Superior			L.Shank.Lateral			L.Shank.Inferior			R.Shank.Superior			R.Shank.Lateral			R.Shank.Inferior			R.Heel			R.Midfoot.Superior			R.Midfoot.Lateral			R.Toe			L.Heel			L.Midfoot.Lateral			L.Midfoot.Superior			L.Toe			L.Elbow			L.Wrist			R.Elbow			R.Wrist			
		X1	Y1	Z1	X2	Y2	Z2	X3	Y3	Z3	X4	Y4	Z4	X5	Y5	Z5	X6	Y6	Z6	X7	Y7	Z7	X8	Y8	Z8	X9	Y9	Z9	X10	Y10	Z10	X11	Y11	Z11	X12	Y12	Z12	X13	Y13	Z13	X14	Y14	Z14	X15	Y15	Z15	X16	Y16	Z16	X17	Y17	Z17	X18	Y18	Z18	X19	Y19	Z19	X20	Y20	Z20	X21	Y21	Z21	X22	Y22	Z22	X23	Y23	Z23	X24	Y24	Z24	X25	Y25	Z25	X26	Y26	Z26	X27	Y27	Z27	X28	Y28	Z28	X29	Y29	Z29	X30	Y30	Z30	X31	Y31	Z31	X32	Y32	Z32	X33	Y33	Z33	

106	36.597500000000	672.407737769234	1013.519088297943	415.001864063042	869.292112564821	1431.234538721303	227.418669672700	958.419896931343	1368.383346117744	399.326721574822	862.570437786093	1451.271929232014	563.073110404148	858.427856089183	1499.475639390526	374.996370386168	892.738681190426	952.914463339572	547.029602096605	899.741297176186	965.916940517334	271.780782711122	982.042345237407	790.606755374218	522.623612965639	948.334718880902	669.090504256691	597.850441240861	1040.077013136708	632.993418822381	520.168927154743	1071.462394521118	530.615380518609	545.526716425263	928.541425557824	748.190641151796	304.529040551361	831.049537498172	638.607452362690	246.905836727894	906.273420596830	556.636556364071	313.378481645832	900.146896555353	489.301434634404	326.005157546012	876.791538062992	419.571421824017	319.441094191909	789.981388300392	301.555053346765	270.416937747917	842.646661354096	195.073713555944	348.909617406617	1019.925330977735	443.773748017450	552.581140928399	921.038820865829	365.425428228709	613.493120543605	945.188526344981	257.940414070102	565.449521014420	779.358652504268	128.514939228661	537.222871408717	956.096390772088	135.012198794683	579.536405695013	854.140376129228	98.787621924153	614.888774612592	1055.418804340482	55.921071963843	615.306540246022	716.332532048334	38.332704258595	396.876510510620	792.089554740237	34.809676900036	317.363216227877	874.505581477972	96.274530961588	344.533416556609	1003.885864546897	44.250575189333	320.957191459176	903.802314917593	1082.052305448890	99.826968165955	1095.255407479414	902.847729627261	104.175377555264	762.574540913604	1126.237173423036	694.407611940688	780.192647046988	866.237217726440	717.591928659327	
107	36.611000000000	671.749753984731	1013.728249133259	414.316588425366	870.315465656532	1430.911588984970	227.347179156598	958.415845801513	1368.097190519202	399.792100416698	861.838338933246	1451.302937971154	562.947185893172	858.763011592837	1499.315472996165	374.825672554453	891.666487705946	952.858990073394	547.337845046959	900.016729519944	965.847512501319	271.963825827532	980.130496444683	790.158343977756	523.103571620735	946.083294490138	668.744556247298	598.396490442133	1037.431547309595	632.462064023354	520.487311717074	1070.022406648119	532.557544273292	545.503887553528	926.633208658655	747.353623452700	304.971076771305	828.051333147427	638.544188362108	246.886451881973	902.131114228156	555.930144796494	313.604968798453	895.327014540703	488.741744099008	326.219335413283	871.691264476880	419.195563014081	319.591805946034	784.468442942591	301.586657520906	270.320029337606	836.442401527493	194.864205514481	348.949086810528	1023.272999021263	444.822848731978	553.233300476168	930.138811740529	360.835811164253	615.384260814182	960.671368765965	254.918496750974	567.319984824058	803.374777774043	115.531681978236	540.560248339296	979.593399946222	132.546076439750	581.558418401578	880.425207088058	90.198880405723	617.627132061276	1083.760506782522	59.377295065072	616.405409560349	709.551423059341	38.345491717415	396.840784271678	785.293691664247	34.790083312132	317.357961131669	867.728809825251	96.217560731239	344.576173033529	997.106790981275	44.135667920528	320.984944167089	907.768131089822	1082.370583460431	99.547709256641	1105.378709864899	910.030249319027	104.090298506342	753.959214509580	1129.390448951794	694.078609253357	762.385690954409	869.473274946243	720.336121348738	
108	36.624500000000	671.237028778407	1013.872936107010	413.797419336477	871.287427266873	1430.544045183263	227.436413823472	958.462924855605	1367.742126140992	400.349358174423	861.281831903802	1451.286373771738	562.970800908731	859.149207587856	1499.096023053673	374.817149519423	890.668792810849	952.701196125049	547.800256337655	900.221164483377	965.679851651659	272.305936726042	977.920837314822	789.193725496030	523.838015040099	943.079050309409	667.944767564608	599.117757512965	1034.118612012709	631.309432740241	521.097333772357	1067.649521149608	533.957411040209	545.589973320668	924.738355436850	746.511787456569	305.556571013922	825.094149275015	638.485002794853	246.932244851302	898.003263583275	555.236870066079	313.891768108797	890.554761468323	488.189501040084	326.436630210261	866.603524716431	418.819809221370	319.759648246500	778.950872423383	301.635209342230	270.247893387659	830.234670463207	194.655150196912	348.992070549715	1025.835836768433	445.708439233241	553.960806929393	938.843552031217	356.355487065880	617.269435898710	975.787133129419	252.458944976827	569.078400378839	827.755130412516	103.604034338336	543.566677504808	1002.870084681128	130.974724203645	583.348665056929	906.803864022643	82.640821408834	619.998148772109	1111.522414361077	63.916819217938	617.152245046166	702.773798414990	38.362984359304	396.808446688831	778.497444619265	34.772943349793	317.354575809767	860.950104373783	96.161316373818	344.618076248494	990.323254594450	44.019892436726	321.012434222803	911.234338596302	1082.565557086053	99.536840667434	1114.735879157151	917.308883547086	104.385195346143	745.900522748561	1132.541203172387	693.765956131810	745.941964701683	872.983125610328	722.638641157129	
109	36.638000000000	670.861980509298	1013.939733556098	413.451419130729	872.216207234374	1430.124682110250	227.684657563902	958.563937118914	1367.308762120673	401.001330946629	860.900282102488	1451.216166941351	563.144305574528	859.583458718815	1498.811639321964	374.969007708030	889.761055142767	952.437387308607	548.421188058694	900.362736517072	965.425451238065	272.807597346586	975.480025647880	787.765483386221	524.826081304135	939.460991315191	666.739823501045	600.015333685175	1030.289246811113	629.617100548855	521.983868024856	1064.497347269534	534.839491284525	545.774484000438	922.850357354946	745.665074944431	306.274260599404	822.178972385360	638.432210254829	247.041101632033	893.896195354685	554.558561519934	314.225932069274	885.838373136137	487.645966483366	326.639303538807	861.533315499340	418.448311432153	319.933202058239	773.424338196854	301.705922355919	270.198838058015	824.023901900705	194.449224842782	349.029646817846	1027.665755031560	446.454977731333	554.750894194424	947.064316300823	352.097694821788	619.089827837365	990.326272687215	250.633078073546	570.681215229807	852.065240884285	92.992370172263	546.161596844431	1025.567131623015	130.309873714780	584.857280978333	932.823174327905	76.252895595449	621.936461327937	1138.271396326880	69.391315706501	617.524622166260	695.996792070561	38.390552541737	396.777125724683	771.701914691546	34.759082972078	317.351864363164	854.171993688880	96.105793657532	344.654206794002	983.535905216630	43.902702398941	321.037950134335	914.227630325755	1082.625153714395	99.782820029633	1123.295299775686	924.596248630835	105.046616600022	738.460921474162	1135.629854585965	693.494573864182	730.943735547352	876.599162502669	724.507473188051	
